# xmcd CD database file
#
# Track frame offsets:
#	150
#	18655
#	36421
#	54413
#	70898
#	92833
#	106798
#	123673
#	142651
#	161599
#	177664
#	195077
#	208667
#	224422
#	242552
#	263739
#	286614
#	303789
#	323178
#
# Disc length: 4512 seconds
#
# Revision: 0
# Processed by: cddbd v1.5.2PL0 Copyright (c) Steve Scherf et al.
# Submitted via: CDex 1.51
#
DISCID=0b119e13
DTITLE=Chris - Unknown Chinese Title
DYEAR=2010
DGENRE=Jazz
TTITLE0=Like A Dream
TTITLE1=Gorgeouys Smile
TTITLE2=Love Is Like A Song
TTITLE3=Breeze Past
TTITLE4=To The Film's Love Letter
TTITLE5=V
TTITLE6=Told Me You Love Me
TTITLE7=Your Eyes
TTITLE8=When Thinking Of You
TTITLE9=Choice
TTITLE10=I Miss
TTITLE11=Leaving Home
TTITLE12=Toguchi
TTITLE13=Almost Just Like Your Tenderness
TTITLE14=Curtain Call Song
TTITLE15=Silly, Etc.
TTITLE16=Three Years
TTITLE17=Passions
TTITLE18=Forgotten Time II
EXTD=YEAR: 2010
EXTT0=
EXTT1=
EXTT2=
EXTT3=
EXTT4=
EXTT5=
EXTT6=
EXTT7=
EXTT8=
EXTT9=
EXTT10=
EXTT11=
EXTT12=
EXTT13=
EXTT14=
EXTT15=
EXTT16=
EXTT17=
EXTT18=
PLAYORDER=
